<svg xmlns="http://www.w3.org/2000/svg" aria-hidden="true" overflow="hidden" style="position:absolute;width:0;height:0">
  <defs>
    <symbol id="icon-arrow-right" viewBox="0 0 32 32">
      <path d="M31.574 16.932a1.455 1.455 0 0 0 0-2.057l-9.257-9.257a1.455 1.455 0 0 0-2.057 2.057l8.228 8.228-8.228 8.228a1.455 1.455 0 0 0 2.057 2.057l9.257-9.257zM0 17.358h30.545v-2.909H0v2.909z"/>
    </symbol>
    <symbol id="icon-facebook" viewBox="0 0 32 32">
      <path d="M15.949.485c2.885.033 5.491.742 7.818 2.127a15.608 15.608 0 0 1 5.556 5.59c1.377 2.341 2.081 4.963 2.114 7.865-.082 3.971-1.334 7.362-3.757 10.174s-5.527 4.552-8.739 5.219V20.327h3.037l.687-4.375h-4.599v-2.866a2.483 2.483 0 0 1 .53-1.645c.368-.469 1.016-.715 1.943-.739h2.777V6.87c-.04-.013-.418-.064-1.134-.152a22.497 22.497 0 0 0-2.448-.152c-1.851.009-3.316.531-4.393 1.567s-1.627 2.534-1.651 4.495v3.325h-3.5v4.375h3.5v11.133c-3.945-.667-7.048-2.407-9.471-5.219S.544 20.038.462 16.068c.033-2.902.737-5.524 2.114-7.865a15.608 15.608 0 0 1 5.556-5.59C10.459 1.228 13.065.519 15.95.486z"/>
    </symbol>
    <symbol id="icon-hamburger-menu" viewBox="0 0 32 32">
      <path d="M4.667 9.333a.667.667 0 1 1 0-1.334h22.667a.667.667 0 0 1 0 1.334H4.667zm0 6.667a.667.667 0 0 1 0-1.334h22.667a.667.667 0 0 1 0 1.334H4.667zm0 6.667a.667.667 0 0 1 0-1.334h22.667a.667.667 0 0 1 0 1.334H4.667z"/>
    </symbol>
    <symbol id="icon-instagram" viewBox="0 0 32 32">
      <path d="M16.315 32h-.319c-2.508.006-4.826-.058-7.08-.195-2.066-.126-3.953-.84-5.455-2.065-1.45-1.182-2.44-2.781-2.942-4.75-.438-1.715-.461-3.398-.483-5.026A343.853 343.853 0 0 1 0 16.004c.003-1.414.02-2.798.036-3.966.022-1.628.045-3.311.483-5.026.503-1.97 1.493-3.568 2.942-4.75C4.963 1.037 6.85.323 8.916.197 11.17.06 13.488-.004 16.002.002c2.509-.005 4.826.058 7.08.195 2.066.126 3.953.84 5.455 2.065 1.45 1.182 2.44 2.781 2.942 4.75.438 1.715.461 3.398.483 5.026.016 1.168.033 2.552.036 3.96v.006c-.003 1.408-.02 2.792-.036 3.96-.022 1.628-.045 3.311-.483 5.026-.503 1.97-1.492 3.568-2.942 4.75-1.502 1.225-3.389 1.939-5.455 2.065-2.158.131-4.376.195-6.767.195zm-.319-2.5c2.468.006 4.733-.056 6.934-.19 1.563-.095 2.917-.602 4.027-1.507 1.026-.837 1.732-1.991 2.1-3.431.364-1.427.385-2.96.405-4.442.016-1.16.032-2.535.036-3.929a339.15 339.15 0 0 0-.036-3.929c-.02-1.482-.041-3.015-.405-4.443-.367-1.44-1.074-2.594-2.1-3.431-1.11-.905-2.465-1.412-4.027-1.507a108.807 108.807 0 0 0-6.928-.19c-2.467-.006-4.733.056-6.934.19-1.563.095-2.917.602-4.027 1.507-1.026.837-1.732 1.991-2.1 3.431-.364 1.428-.385 2.96-.406 4.443a363.726 363.726 0 0 0-.036 3.932c.003 1.389.02 2.765.036 3.926.02 1.482.041 3.015.406 4.442.367 1.44 1.074 2.594 2.1 3.431 1.11.905 2.465 1.412 4.027 1.507 2.201.134 4.467.197 6.928.19zm-.059-5.687c-4.308 0-7.812-3.505-7.812-7.812s3.505-7.813 7.812-7.813c4.308 0 7.813 3.505 7.813 7.813s-3.505 7.812-7.813 7.812zm0-13.125c-2.929 0-5.312 2.383-5.312 5.313s2.383 5.312 5.312 5.312c2.929 0 5.313-2.383 5.313-5.312s-2.383-5.313-5.313-5.313zm8.687-5a1.875 1.875 0 1 0 0 3.75 1.875 1.875 0 0 0 0-3.75z"/>
    </symbol>
    <symbol id="icon-location" viewBox="0 0 32 32">
      <path d="M4.75 11.25c0 5.557 4.243 11.586 7.986 16.797.89 1.238 1.742 2.423 2.484 3.536a.938.938 0 0 0 1.56 0c.742-1.112 1.594-2.298 2.484-3.536 3.744-5.21 7.986-11.24 7.986-16.797C27.25 5.046 22.204 0 16 0S4.75 5.046 4.75 11.25zm16.875 0c0 3.102-2.523 5.625-5.625 5.625s-5.625-2.523-5.625-5.625S12.898 5.625 16 5.625s5.625 2.523 5.625 5.625z"/>
      <path d="M16 15a3.75 3.75 0 1 0 0-7.5 3.75 3.75 0 0 0 0 7.5z"/>
    </symbol>
    <symbol id="icon-pinterest" viewBox="0 0 32 32">
      <path d="M28.8 16.384c.192-7.328-5.696-13.28-12.992-13.184C8.8 3.296 3.136 9.088 3.2 16.096c.032 5.024 2.976 9.344 7.2 11.424a.35.35 0 0 0 .512-.352c-.032-.832 0-1.696.16-2.4s.8-3.392 1.216-5.152c.192-.864.224-1.76.064-2.624a4.532 4.532 0 0 1-.096-.992c0-1.888 1.088-3.296 2.464-3.296 1.152 0 1.728.864 1.728 1.92 0 1.152-.736 2.912-1.12 4.544-.32 1.344.672 2.464 2.016 2.464 2.432 0 4.288-2.56 4.288-6.24 0-3.264-2.336-5.536-5.696-5.536-3.872 0-6.144 2.912-6.144 5.92 0 1.184.448 2.432 1.024 3.104.096.128.128.256.096.384-.096.416-.32 1.344-.384 1.536-.064.256-.192.288-.448.192-1.696-.832-2.784-3.328-2.784-5.312 0-4.288 3.104-8.224 8.992-8.224 4.704 0 8.384 3.36 8.384 7.872 0 4.704-2.944 8.448-7.072 8.448-1.088 0-2.112-.448-2.72-1.056a.343.343 0 0 0-.576.16c-.224.8-.544 2.144-.672 2.56-.192.768-.608 1.664-1.056 2.464-.128.192 0 .48.224.512 1.056.256 2.144.416 3.264.384 6.784-.064 12.544-5.696 12.736-12.416z"/>
    </symbol>
    <symbol id="icon-slide-arrow" viewBox="0 0 35 32">
      <path d="M35.2 6.4v19.2a6.4 6.4 0 0 1-6.4 6.4H6.4A6.4 6.4 0 0 1 0 25.6V6.4A6.4 6.4 0 0 1 6.4 0h22.4a6.4 6.4 0 0 1 6.4 6.4z"/>
      <path fill="none" stroke="var(--color1, #fff)" stroke-linecap="round" stroke-linejoin="round" stroke-width="1.067" d="M20.267 10.667 14.934 16l5.333 5.333"/>
    </symbol>
    <symbol id="icon-star" viewBox="0 0 32 32">
      <path d="m16 2.667 4.12 8.347 9.213 1.347-6.667 6.493 1.573 9.173-8.24-4.333-8.24 4.333 1.573-9.173-6.667-6.493 9.213-1.347 4.12-8.347z"/>
    </symbol>
    <symbol id="icon-twitter" viewBox="0 0 32 32">
      <path d="M28.768 8.064c-.96.416-1.952.704-3.008.832a5.12 5.12 0 0 0 2.304-2.912c-1.024.608-2.144 1.024-3.328 1.28a5.251 5.251 0 0 0-9.088 3.584c0 .416.032.8.128 1.184-4.352-.192-8.192-2.304-10.784-5.472-1.856 3.328.224 6.08 1.6 7.008-.832 0-1.664-.256-2.368-.64 0 2.592 1.824 4.736 4.192 5.216-.512.16-1.664.256-2.368.096.672 2.08 2.624 3.616 4.896 3.648-1.792 1.408-4.416 2.528-7.776 2.176a14.804 14.804 0 0 0 8.064 2.368c9.664 0 14.912-8 14.912-14.912 0-.224 0-.448-.032-.672 1.088-.8 1.984-1.728 2.656-2.784z"/>
    </symbol>
  </defs>
</svg>
